<?xml version="1.0" standalone="no"?>
<!DOCTYPE svg PUBLIC "-//W3C//DTD SVG 20010904//EN"
 "http://www.w3.org/TR/2001/REC-SVG-20010904/DTD/svg10.dtd">
<svg version="1.0" xmlns="http://www.w3.org/2000/svg"
 width="128.000000pt" height="128.000000pt" viewBox="0 0 128.000000 128.000000"
 preserveAspectRatio="xMidYMid meet">
<metadata>
Created by potrace 1.14, written by Peter Selinger 2001-2017
</metadata>
<g transform="translate(0.000000,128.000000) scale(0.100000,-0.100000)"
fill="#000000" stroke="none">
<path d="M426 1248 c-25 -23 -350 -470 -387 -532 -24 -42 -27 -103 -6 -145 8
-17 75 -113 148 -213 264 -365 258 -359 311 -339 17 6 87 94 215 273 104 145
195 273 201 285 17 30 17 104 2 133 -11 21 -129 188 -150 213 -10 11 -83 -90
-77 -106 2 -7 30 -48 61 -91 48 -66 54 -81 45 -98 -27 -50 -311 -433 -321
-433 -17 0 -317 417 -318 441 0 16 272 409 312 449 6 7 21 -3 43 -30 l33 -39
21 24 c11 14 28 39 37 57 l18 31 -44 59 c-24 32 -51 63 -59 70 -24 19 -57 15
-85 -9z"/>
<path d="M772 1253 c-15 -14 -255 -342 -380 -519 -27 -39 -36 -92 -24 -137 9
-32 144 -229 162 -235 4 -2 24 20 44 48 l37 51 -61 83 c-33 45 -60 89 -60 96
0 18 313 449 326 450 13 0 314 -411 321 -438 6 -23 -313 -463 -330 -456 -6 2
-22 20 -35 40 l-23 35 -18 -23 c-9 -13 -27 -38 -40 -56 l-22 -32 46 -64 c55
-75 84 -92 123 -74 24 12 114 131 361 476 71 99 84 150 54 209 -25 50 -357
512 -389 541 -30 26 -65 28 -92 5z"/>
</g>
</svg>
